<svg width="40" height="41" viewBox="0 0 40 41" fill="none" xmlns="http://www.w3.org/2000/svg">
<path d="M39.5 20.6868C39.5 31.4563 30.7696 40.1868 20 40.1868C9.23045 40.1868 0.5 31.4563 0.5 20.6868C0.5 9.91721 9.23045 1.18677 20 1.18677C30.7696 1.18677 39.5 9.91721 39.5 20.6868Z" fill="white" stroke="black"/>
<path d="M6.74121 35.303C15.4303 42.6191 26.6125 41.1015 33.258 35.303C23.0961 24.7484 14.694 26.706 6.74121 35.303Z" fill="#D9D9D9" stroke="black"/>
<path d="M27.3265 21.1361C27.3265 25.1822 24.0465 28.4622 20.0004 28.4622C15.9543 28.4622 12.6743 25.1822 12.6743 21.1361C12.6743 17.0901 15.9543 13.8101 20.0004 13.8101C24.0465 13.8101 27.3265 17.0901 27.3265 21.1361Z" fill="#D9D9D9" stroke="black"/>
</svg>
