<svg width="205" height="94" viewBox="0 0 205 94" fill="none" xmlns="http://www.w3.org/2000/svg">
<path d="M80.568 67.112C80.568 69.104 80.316 70.916 79.812 72.548C79.332 74.156 78.588 75.548 77.58 76.724C76.596 77.9 75.324 78.8 73.764 79.424C72.228 80.048 70.416 80.36 68.328 80.36C66.24 80.36 64.416 80.048 62.856 79.424C61.32 78.776 60.048 77.876 59.04 76.724C58.056 75.548 57.312 74.144 56.808 72.512C56.328 70.88 56.088 69.068 56.088 67.076C56.088 64.412 56.52 62.096 57.384 60.128C58.272 58.16 59.616 56.636 61.416 55.556C63.24 54.452 65.556 53.9 68.364 53.9C71.148 53.9 73.44 54.452 75.24 55.556C77.04 56.636 78.372 58.172 79.236 60.164C80.124 62.132 80.568 64.448 80.568 67.112ZM61.812 67.112C61.812 68.912 62.04 70.46 62.496 71.756C62.952 73.052 63.66 74.048 64.62 74.744C65.58 75.44 66.816 75.788 68.328 75.788C69.888 75.788 71.136 75.44 72.072 74.744C73.032 74.048 73.728 73.052 74.16 71.756C74.616 70.46 74.844 68.912 74.844 67.112C74.844 64.4 74.34 62.276 73.332 60.74C72.324 59.204 70.668 58.436 68.364 58.436C66.828 58.436 65.58 58.784 64.62 59.48C63.66 60.176 62.952 61.172 62.496 62.468C62.04 63.764 61.812 65.312 61.812 67.112ZM90.8243 60.344V67.904H98.3123V60.344H103.676V80H98.3123V71.9H90.8243V80H85.4603V60.344H90.8243ZM126.9 80H121.536V64.376H116.604C116.364 67.256 116.064 69.716 115.704 71.756C115.368 73.772 114.936 75.416 114.408 76.688C113.904 77.96 113.256 78.896 112.464 79.496C111.672 80.072 110.7 80.36 109.548 80.36C108.924 80.36 108.36 80.312 107.856 80.216C107.352 80.12 106.896 79.976 106.488 79.784V75.5C106.752 75.596 107.028 75.68 107.316 75.752C107.604 75.824 107.904 75.86 108.216 75.86C108.552 75.86 108.864 75.728 109.152 75.464C109.464 75.2 109.752 74.732 110.016 74.06C110.304 73.388 110.568 72.464 110.808 71.288C111.048 70.112 111.264 68.636 111.456 66.86C111.672 65.06 111.864 62.888 112.032 60.344H126.9V80ZM140.563 59.948C143.203 59.948 145.219 60.524 146.611 61.676C148.027 62.804 148.735 64.544 148.735 66.896V80H144.991L143.947 77.336H143.803C143.251 78.032 142.675 78.608 142.075 79.064C141.499 79.52 140.827 79.844 140.059 80.036C139.315 80.252 138.391 80.36 137.287 80.36C136.135 80.36 135.091 80.144 134.155 79.712C133.243 79.256 132.523 78.572 131.995 77.66C131.467 76.724 131.203 75.548 131.203 74.132C131.203 72.044 131.935 70.508 133.399 69.524C134.863 68.516 137.059 67.964 139.987 67.868L143.407 67.76V66.896C143.407 65.864 143.131 65.108 142.579 64.628C142.051 64.148 141.307 63.908 140.347 63.908C139.387 63.908 138.451 64.052 137.539 64.34C136.627 64.604 135.715 64.94 134.803 65.348L133.039 61.712C134.095 61.16 135.259 60.728 136.531 60.416C137.827 60.104 139.171 59.948 140.563 59.948ZM141.319 70.964C139.591 71.012 138.391 71.324 137.719 71.9C137.047 72.476 136.711 73.232 136.711 74.168C136.711 74.984 136.951 75.572 137.431 75.932C137.911 76.268 138.535 76.436 139.303 76.436C140.455 76.436 141.427 76.1 142.219 75.428C143.011 74.732 143.407 73.76 143.407 72.512V70.892L141.319 70.964ZM173.054 51.884C172.934 53.132 172.586 54.236 172.01 55.196C171.434 56.132 170.534 56.864 169.31 57.392C168.086 57.92 166.442 58.184 164.378 58.184C162.266 58.184 160.61 57.932 159.41 57.428C158.234 56.9 157.394 56.168 156.89 55.232C156.386 54.296 156.086 53.18 155.99 51.884H160.778C160.898 53.204 161.234 54.08 161.786 54.512C162.338 54.944 163.238 55.16 164.486 55.16C165.518 55.16 166.358 54.932 167.006 54.476C167.678 53.996 168.074 53.132 168.194 51.884H173.054ZM159.41 68.12C159.41 68.528 159.386 69.032 159.338 69.632C159.314 70.232 159.278 70.844 159.23 71.468C159.206 72.092 159.17 72.644 159.122 73.124C159.074 73.604 159.038 73.94 159.014 74.132L168.086 60.344H174.53V80H169.346V72.152C169.346 71.504 169.37 70.796 169.418 70.028C169.466 69.236 169.514 68.504 169.562 67.832C169.634 67.136 169.682 66.608 169.706 66.248L160.67 80H154.226V60.344H159.41V68.12ZM185.5 60.344V67.904H192.988V60.344H198.352V80H192.988V71.9H185.5V80H180.136V60.344H185.5Z" fill="#D9D9D9"/>
<path d="M3.24 40V14.296H23.58V40H18.144V18.832H8.676V40H3.24ZM40.5762 19.984C42.7842 19.984 44.5722 20.848 45.9402 22.576C47.3082 24.28 47.9922 26.8 47.9922 30.136C47.9922 32.368 47.6682 34.252 47.0202 35.788C46.3722 37.3 45.4842 38.44 44.3562 39.208C43.2282 39.976 41.9202 40.36 40.4322 40.36C39.4962 40.36 38.6802 40.24 37.9842 40C37.3122 39.76 36.7362 39.448 36.2562 39.064C35.7762 38.68 35.3562 38.272 34.9962 37.84H34.7082C34.8042 38.296 34.8762 38.776 34.9242 39.28C34.9722 39.76 34.9962 40.24 34.9962 40.72V48.64H29.6322V20.344H33.9882L34.7442 22.9H34.9962C35.3562 22.372 35.7882 21.892 36.2922 21.46C36.7962 21.004 37.3962 20.644 38.0922 20.38C38.8122 20.116 39.6402 19.984 40.5762 19.984ZM38.8482 24.268C37.9122 24.268 37.1682 24.46 36.6162 24.844C36.0642 25.228 35.6562 25.816 35.3922 26.608C35.1522 27.376 35.0202 28.348 34.9962 29.524V30.1C34.9962 31.372 35.1162 32.452 35.3562 33.34C35.5962 34.204 36.0042 34.864 36.5802 35.32C37.1562 35.776 37.9362 36.004 38.9202 36.004C39.7362 36.004 40.4082 35.776 40.9362 35.32C41.4642 34.864 41.8602 34.192 42.1242 33.304C42.3882 32.416 42.5202 31.336 42.5202 30.064C42.5202 28.144 42.2202 26.704 41.6202 25.744C41.0442 24.76 40.1202 24.268 38.8482 24.268ZM70.2695 30.136C70.2695 31.768 70.0415 33.22 69.5855 34.492C69.1535 35.764 68.5175 36.844 67.6775 37.732C66.8615 38.596 65.8655 39.256 64.6895 39.712C63.5135 40.144 62.1815 40.36 60.6935 40.36C59.3255 40.36 58.0535 40.144 56.8775 39.712C55.7255 39.256 54.7295 38.596 53.8895 37.732C53.0495 36.844 52.3895 35.764 51.9095 34.492C51.4535 33.22 51.2255 31.768 51.2255 30.136C51.2255 27.952 51.6095 26.116 52.3775 24.628C53.1455 23.116 54.2495 21.964 55.6895 21.172C57.1295 20.38 58.8335 19.984 60.8015 19.984C62.6495 19.984 64.2815 20.38 65.6975 21.172C67.1135 21.964 68.2295 23.116 69.0455 24.628C69.8615 26.116 70.2695 27.952 70.2695 30.136ZM56.6975 30.136C56.6975 31.432 56.8295 32.524 57.0935 33.412C57.3815 34.276 57.8255 34.936 58.4255 35.392C59.0255 35.824 59.8055 36.04 60.7655 36.04C61.7255 36.04 62.4935 35.824 63.0695 35.392C63.6695 34.936 64.1015 34.276 64.3655 33.412C64.6535 32.524 64.7975 31.432 64.7975 30.136C64.7975 28.84 64.6535 27.76 64.3655 26.896C64.1015 26.032 63.6695 25.384 63.0695 24.952C62.4695 24.52 61.6895 24.304 60.7295 24.304C59.3135 24.304 58.2815 24.796 57.6335 25.78C57.0095 26.74 56.6975 28.192 56.6975 30.136ZM92.5585 20.344V40H87.1945V24.376H80.0665V40H74.7025V20.344H92.5585ZM95.3789 20.344H101.247L104.955 31.396C105.075 31.756 105.171 32.116 105.243 32.476C105.339 32.836 105.411 33.208 105.459 33.592C105.531 33.976 105.579 34.384 105.603 34.816H105.711C105.783 34.192 105.879 33.604 105.999 33.052C106.143 32.476 106.299 31.924 106.467 31.396L110.103 20.344H115.863L107.547 42.52C107.043 43.864 106.383 44.992 105.567 45.904C104.775 46.816 103.851 47.5 102.795 47.956C101.739 48.412 100.587 48.64 99.3389 48.64C98.7389 48.64 98.2109 48.604 97.7549 48.532C97.3229 48.484 96.9389 48.424 96.6029 48.352V44.104C96.8669 44.152 97.1789 44.2 97.5389 44.248C97.9229 44.296 98.3189 44.32 98.7269 44.32C99.4709 44.32 100.107 44.164 100.635 43.852C101.187 43.54 101.643 43.108 102.003 42.556C102.363 42.028 102.651 41.452 102.867 40.828L103.191 39.856L95.3789 20.344ZM126.675 40.36C124.731 40.36 123.075 40.012 121.707 39.316C120.339 38.596 119.295 37.492 118.575 36.004C117.855 34.516 117.495 32.608 117.495 30.28C117.495 27.88 117.903 25.924 118.719 24.412C119.535 22.9 120.663 21.784 122.103 21.064C123.567 20.344 125.247 19.984 127.143 19.984C128.487 19.984 129.651 20.116 130.635 20.38C131.643 20.644 132.519 20.956 133.263 21.316L131.679 25.456C130.839 25.12 130.047 24.844 129.303 24.628C128.583 24.412 127.863 24.304 127.143 24.304C126.207 24.304 125.427 24.532 124.803 24.988C124.179 25.42 123.711 26.08 123.399 26.968C123.111 27.832 122.967 28.924 122.967 30.244C122.967 31.54 123.123 32.62 123.435 33.484C123.771 34.324 124.251 34.96 124.875 35.392C125.499 35.8 126.255 36.004 127.143 36.004C128.271 36.004 129.267 35.86 130.131 35.572C130.995 35.26 131.835 34.84 132.651 34.312V38.884C131.835 39.412 130.971 39.784 130.059 40C129.171 40.24 128.043 40.36 126.675 40.36ZM150.063 20.344H155.967L148.191 29.776L156.651 40H150.567L142.539 30.028V40H137.175V20.344H142.539V29.884L150.063 20.344Z" fill="#D9D9D9"/>
<path fill-rule="evenodd" clip-rule="evenodd" d="M172 33.6996H192.684V19.0323C192.684 15.9948 190.222 13.5323 187.184 13.5323H177.5C174.462 13.5323 172 15.9948 172 19.0323V33.6996ZM185.833 15.3422H178.852C178.352 15.3422 177.947 15.7474 177.947 16.2472C177.947 16.747 178.352 17.1521 178.852 17.1521H185.833C186.332 17.1521 186.738 16.747 186.738 16.2472C186.738 15.7474 186.332 15.3422 185.833 15.3422Z" fill="#D9D9D9"/>
<path d="M185.833 15.3422H178.852C178.352 15.3422 177.947 15.7474 177.947 16.2472C177.947 16.747 178.352 17.1521 178.852 17.1521H185.833C186.332 17.1521 186.738 16.747 186.738 16.2472C186.738 15.7474 186.332 15.3422 185.833 15.3422Z" stroke="black"/>
<path fill-rule="evenodd" clip-rule="evenodd" d="M172 33.6996H192.684V19.0323C192.684 15.9948 190.222 13.5323 187.184 13.5323H177.5C174.462 13.5323 172 15.9948 172 19.0323V33.6996ZM185.833 15.3422H178.852C178.352 15.3422 177.947 15.7474 177.947 16.2472C177.947 16.747 178.352 17.1521 178.852 17.1521H185.833C186.332 17.1521 186.738 16.747 186.738 16.2472C186.738 15.7474 186.332 15.3422 185.833 15.3422Z" stroke="black"/>
<path d="M187.184 41.1977H177.5C174.462 41.1977 172 38.7353 172 35.6977V33.6996H182.342H192.684V35.6977C192.684 38.7353 190.222 41.1977 187.184 41.1977Z" fill="#D9D9D9" stroke="black"/>
<circle cx="182.342" cy="24.9088" r="5.44677" fill="white" stroke="black"/>
<path d="M179 28.9897C181.752 31.276 184.34 30.8187 186.091 28.9897C183.118 26.2015 181.327 26.7186 179 28.9897Z" fill="#D9D9D9" stroke="black"/>
<circle cx="182.342" cy="24.9088" r="1.827" fill="#D9D9D9" stroke="black"/>
<path d="M185.833 15.3423H178.852C178.352 15.3423 177.947 15.7474 177.947 16.2472C177.947 16.747 178.352 17.1522 178.852 17.1522H185.833C186.332 17.1522 186.738 16.747 186.738 16.2472C186.738 15.7474 186.332 15.3423 185.833 15.3423Z" stroke="black"/>
<path d="M174.844 35.5095C174.844 37.3559 174.844 37.8001 174.844 39.6464" stroke="black" stroke-linecap="round"/>
<path d="M176.913 35.5095C176.913 37.3559 176.913 37.8001 176.913 39.6464" stroke="black" stroke-linecap="round"/>
<path d="M178.981 35.5095C178.981 37.3559 178.981 37.8001 178.981 39.6464" stroke="black" stroke-linecap="round"/>
<path d="M181.05 35.5095C181.05 37.3559 181.05 37.8001 181.05 39.6464" stroke="black" stroke-linecap="round"/>
<path d="M183.118 35.5095C183.118 37.3559 183.118 37.8001 183.118 39.6464" stroke="black" stroke-linecap="round"/>
<path d="M185.187 35.5095C185.187 37.3559 185.187 37.8001 185.187 39.6464" stroke="black" stroke-linecap="round"/>
<path d="M187.255 35.5095C187.255 37.3559 187.255 37.8001 187.255 39.6464" stroke="black" stroke-linecap="round"/>
<path d="M189.323 35.5095C189.323 37.3559 189.323 37.8001 189.323 39.6464" stroke="black" stroke-linecap="round"/>
<path fill-rule="evenodd" clip-rule="evenodd" d="M179.498 7C179.498 5.89543 180.393 5 181.498 5H183.186C184.291 5 185.186 5.89543 185.186 7V7.53054V10.0611H179.498V7ZM182.342 8.61977C183.056 8.61977 183.635 8.04098 183.635 7.327C183.635 6.61302 183.056 6.03422 182.342 6.03422C181.628 6.03422 181.049 6.61302 181.049 7.327C181.049 8.04098 181.628 8.61977 182.342 8.61977Z" fill="#D9D9D9" stroke="black"/>
<path d="M179.498 16.8936V10.1711H185.186V16.8936H179.498Z" fill="white" stroke="black"/>
<circle cx="182.342" cy="7.32696" r="0.792776" stroke="black"/>
<path d="M196.078 41.0587C192.363 38.7152 189.414 34.0122 189.325 29.5111C189.323 29.3785 189.376 29.2514 189.47 29.1587C190.433 28.2174 191.591 27.2861 192.551 26.5602C192.638 26.495 192.743 26.4601 192.851 26.4601H199.773C199.871 26.4601 199.968 26.4893 200.05 26.5444C201.451 27.4872 202.632 28.4241 203.396 29.1592C203.491 29.2512 203.544 29.3785 203.542 29.5111C203.451 34.2601 200.265 39.2027 196.543 41.0819C196.394 41.1568 196.219 41.1473 196.078 41.0587Z" fill="white" stroke="black" stroke-linecap="round"/>
<circle cx="196.304" cy="33.1825" r="3.37833" fill="#D9D9D9" stroke="black"/>
<path d="M194.753 33.1825L195.434 33.8632C195.629 34.0584 195.945 34.0584 196.141 33.8632L198.114 31.8897" stroke="black" stroke-linecap="round"/>
</svg>
