<svg width="526" height="230" viewBox="0 0 526 230" fill="none" xmlns="http://www.w3.org/2000/svg">
<path d="M203.848 157.632C203.848 162.944 203.176 167.776 201.832 172.128C200.552 176.416 198.568 180.128 195.88 183.264C193.256 186.4 189.864 188.8 185.704 190.464C181.608 192.128 176.776 192.96 171.208 192.96C165.64 192.96 160.776 192.128 156.616 190.464C152.52 188.736 149.128 186.336 146.44 183.264C143.816 180.128 141.832 176.384 140.488 172.032C139.208 167.68 138.568 162.848 138.568 157.536C138.568 150.432 139.72 144.256 142.024 139.008C144.392 133.76 147.976 129.696 152.776 126.816C157.64 123.872 163.816 122.4 171.304 122.4C178.728 122.4 184.84 123.872 189.64 126.816C194.44 129.696 197.992 133.792 200.296 139.104C202.664 144.352 203.848 150.528 203.848 157.632ZM153.832 157.632C153.832 162.432 154.44 166.56 155.656 170.016C156.872 173.472 158.76 176.128 161.32 177.984C163.88 179.84 167.176 180.768 171.208 180.768C175.368 180.768 178.696 179.84 181.192 177.984C183.752 176.128 185.608 173.472 186.76 170.016C187.976 166.56 188.584 162.432 188.584 157.632C188.584 150.4 187.24 144.736 184.552 140.64C181.864 136.544 177.448 134.496 171.304 134.496C167.208 134.496 163.88 135.424 161.32 137.28C158.76 139.136 156.872 141.792 155.656 145.248C154.44 148.704 153.832 152.832 153.832 157.632ZM231.198 139.584V159.744H251.166V139.584H265.47V192H251.166V170.4H231.198V192H216.894V139.584H231.198ZM327.401 192H313.097V150.336H299.945C299.305 158.016 298.505 164.576 297.545 170.016C296.649 175.392 295.497 179.776 294.089 183.168C292.745 186.56 291.017 189.056 288.905 190.656C286.793 192.192 284.201 192.96 281.129 192.96C279.465 192.96 277.961 192.832 276.617 192.576C275.273 192.32 274.057 191.936 272.969 191.424V180C273.673 180.256 274.409 180.48 275.177 180.672C275.945 180.864 276.745 180.96 277.577 180.96C278.473 180.96 279.305 180.608 280.073 179.904C280.905 179.2 281.673 177.952 282.377 176.16C283.145 174.368 283.849 171.904 284.489 168.768C285.129 165.632 285.705 161.696 286.217 156.96C286.793 152.16 287.305 146.368 287.753 139.584H327.401V192ZM363.836 138.528C370.876 138.528 376.252 140.064 379.964 143.136C383.74 146.144 385.628 150.784 385.628 157.056V192H375.644L372.86 184.896H372.476C371.004 186.752 369.468 188.288 367.868 189.504C366.332 190.72 364.54 191.584 362.492 192.096C360.508 192.672 358.044 192.96 355.1 192.96C352.028 192.96 349.244 192.384 346.748 191.232C344.316 190.016 342.396 188.192 340.988 185.76C339.58 183.264 338.876 180.128 338.876 176.352C338.876 170.784 340.828 166.688 344.732 164.064C348.636 161.376 354.492 159.904 362.3 159.648L371.42 159.36V157.056C371.42 154.304 370.684 152.288 369.212 151.008C367.804 149.728 365.82 149.088 363.26 149.088C360.7 149.088 358.204 149.472 355.772 150.24C353.34 150.944 350.908 151.84 348.476 152.928L343.772 143.232C346.588 141.76 349.692 140.608 353.084 139.776C356.54 138.944 360.124 138.528 363.836 138.528ZM365.852 167.904C361.244 168.032 358.044 168.864 356.252 170.4C354.46 171.936 353.564 173.952 353.564 176.448C353.564 178.624 354.204 180.192 355.484 181.152C356.764 182.048 358.428 182.496 360.476 182.496C363.548 182.496 366.14 181.6 368.252 179.808C370.364 177.952 371.42 175.36 371.42 172.032V167.712L365.852 167.904ZM450.477 117.024C450.157 120.352 449.229 123.296 447.693 125.856C446.157 128.352 443.757 130.304 440.493 131.712C437.229 133.12 432.845 133.824 427.341 133.824C421.709 133.824 417.293 133.152 414.093 131.808C410.957 130.4 408.717 128.448 407.373 125.952C406.029 123.456 405.229 120.48 404.973 117.024H417.741C418.061 120.544 418.957 122.88 420.429 124.032C421.901 125.184 424.301 125.76 427.629 125.76C430.381 125.76 432.621 125.152 434.349 123.936C436.141 122.656 437.197 120.352 437.517 117.024H450.477ZM414.093 160.32C414.093 161.408 414.029 162.752 413.901 164.352C413.837 165.952 413.741 167.584 413.613 169.248C413.549 170.912 413.453 172.384 413.325 173.664C413.197 174.944 413.101 175.84 413.037 176.352L437.229 139.584H454.413V192H440.589V171.072C440.589 169.344 440.653 167.456 440.781 165.408C440.909 163.296 441.037 161.344 441.165 159.552C441.357 157.696 441.485 156.288 441.549 155.328L417.453 192H400.269V139.584H414.093V160.32ZM483.667 139.584V159.744H503.635V139.584H517.939V192H503.635V170.4H483.667V192H469.363V139.584H483.667Z" fill="#48CAE4"/>
<path d="M8.64 106V37.456H62.88V106H48.384V49.552H23.136V106H8.64ZM108.203 52.624C114.091 52.624 118.859 54.928 122.507 59.536C126.155 64.08 127.979 70.8 127.979 79.696C127.979 85.648 127.115 90.672 125.387 94.768C123.659 98.8 121.291 101.84 118.283 103.888C115.275 105.936 111.787 106.96 107.819 106.96C105.323 106.96 103.147 106.64 101.291 106C99.4993 105.36 97.9633 104.528 96.6833 103.504C95.4033 102.48 94.2833 101.392 93.3233 100.24H92.5553C92.8113 101.456 93.0033 102.736 93.1313 104.08C93.2593 105.36 93.3233 106.64 93.3233 107.92V129.04H79.0193V53.584H90.6353L92.6513 60.4H93.3233C94.2833 58.992 95.4353 57.712 96.7793 56.56C98.1233 55.344 99.7233 54.384 101.579 53.68C103.499 52.976 105.707 52.624 108.203 52.624ZM103.595 64.048C101.099 64.048 99.1153 64.56 97.6433 65.584C96.1713 66.608 95.0833 68.176 94.3793 70.288C93.7393 72.336 93.3873 74.928 93.3233 78.064V79.6C93.3233 82.992 93.6433 85.872 94.2833 88.24C94.9233 90.544 96.0113 92.304 97.5473 93.52C99.0833 94.736 101.163 95.344 103.787 95.344C105.963 95.344 107.755 94.736 109.163 93.52C110.571 92.304 111.627 90.512 112.331 88.144C113.035 85.776 113.387 82.896 113.387 79.504C113.387 74.384 112.587 70.544 110.987 67.984C109.451 65.36 106.987 64.048 103.595 64.048ZM187.385 79.696C187.385 84.048 186.777 87.92 185.561 91.312C184.409 94.704 182.713 97.584 180.473 99.952C178.297 102.256 175.641 104.016 172.505 105.232C169.369 106.384 165.817 106.96 161.849 106.96C158.201 106.96 154.809 106.384 151.673 105.232C148.601 104.016 145.945 102.256 143.705 99.952C141.465 97.584 139.705 94.704 138.425 91.312C137.209 87.92 136.601 84.048 136.601 79.696C136.601 73.872 137.625 68.976 139.673 65.008C141.721 60.976 144.665 57.904 148.505 55.792C152.345 53.68 156.889 52.624 162.137 52.624C167.065 52.624 171.417 53.68 175.193 55.792C178.969 57.904 181.945 60.976 184.121 65.008C186.297 68.976 187.385 73.872 187.385 79.696ZM151.193 79.696C151.193 83.152 151.545 86.064 152.249 88.432C153.017 90.736 154.201 92.496 155.801 93.712C157.401 94.864 159.481 95.44 162.041 95.44C164.601 95.44 166.649 94.864 168.185 93.712C169.785 92.496 170.937 90.736 171.641 88.432C172.409 86.064 172.793 83.152 172.793 79.696C172.793 76.24 172.409 73.36 171.641 71.056C170.937 68.752 169.785 67.024 168.185 65.872C166.585 64.72 164.505 64.144 161.945 64.144C158.169 64.144 155.417 65.456 153.689 68.08C152.025 70.64 151.193 74.512 151.193 79.696ZM246.823 53.584V106H232.519V64.336H213.511V106H199.207V53.584H246.823ZM254.344 53.584H269.992L279.88 83.056C280.2 84.016 280.456 84.976 280.648 85.936C280.904 86.896 281.096 87.888 281.224 88.912C281.416 89.936 281.544 91.024 281.608 92.176H281.896C282.088 90.512 282.344 88.944 282.664 87.472C283.048 85.936 283.464 84.464 283.912 83.056L293.608 53.584H308.968L286.792 112.72C285.448 116.304 283.688 119.312 281.512 121.744C279.4 124.176 276.936 126 274.12 127.216C271.304 128.432 268.232 129.04 264.904 129.04C263.304 129.04 261.896 128.944 260.68 128.752C259.528 128.624 258.504 128.464 257.608 128.272V116.944C258.312 117.072 259.144 117.2 260.104 117.328C261.128 117.456 262.184 117.52 263.272 117.52C265.256 117.52 266.952 117.104 268.36 116.272C269.832 115.44 271.048 114.288 272.008 112.816C272.968 111.408 273.736 109.872 274.312 108.208L275.176 105.616L254.344 53.584ZM337.8 106.96C332.616 106.96 328.2 106.032 324.552 104.176C320.904 102.256 318.12 99.312 316.2 95.344C314.28 91.376 313.32 86.288 313.32 80.08C313.32 73.68 314.408 68.464 316.584 64.432C318.76 60.4 321.768 57.424 325.608 55.504C329.512 53.584 333.992 52.624 339.048 52.624C342.632 52.624 345.736 52.976 348.36 53.68C351.048 54.384 353.384 55.216 355.368 56.176L351.144 67.216C348.904 66.32 346.792 65.584 344.808 65.008C342.888 64.432 340.968 64.144 339.048 64.144C336.552 64.144 334.472 64.752 332.808 65.968C331.144 67.12 329.896 68.88 329.064 71.248C328.296 73.552 327.912 76.464 327.912 79.984C327.912 83.44 328.328 86.32 329.16 88.624C330.056 90.864 331.336 92.56 333 93.712C334.664 94.8 336.68 95.344 339.048 95.344C342.056 95.344 344.712 94.96 347.016 94.192C349.32 93.36 351.56 92.24 353.736 90.832V103.024C351.56 104.432 349.256 105.424 346.824 106C344.456 106.64 341.448 106.96 337.8 106.96ZM400.169 53.584H415.913L395.177 78.736L417.737 106H401.513L380.105 79.408V106H365.801V53.584H380.105V79.024L400.169 53.584Z" fill="#48CAE4"/>
<path fill-rule="evenodd" clip-rule="evenodd" d="M437 91.5H477V58C477 54.9624 474.538 52.5 471.5 52.5H442.5C439.462 52.5 437 54.9624 437 58V91.5ZM463.75 56H450.25C449.284 56 448.5 56.7835 448.5 57.75C448.5 58.7165 449.284 59.5 450.25 59.5H463.75C464.716 59.5 465.5 58.7165 465.5 57.75C465.5 56.7835 464.716 56 463.75 56Z" fill="#D9D9D9"/>
<path d="M463.75 56H450.25C449.284 56 448.5 56.7835 448.5 57.75C448.5 58.7165 449.284 59.5 450.25 59.5H463.75C464.716 59.5 465.5 58.7165 465.5 57.75C465.5 56.7835 464.716 56 463.75 56Z" stroke="black"/>
<path fill-rule="evenodd" clip-rule="evenodd" d="M437 91.5H477V58C477 54.9624 474.538 52.5 471.5 52.5H442.5C439.462 52.5 437 54.9624 437 58V91.5ZM463.75 56H450.25C449.284 56 448.5 56.7835 448.5 57.75C448.5 58.7165 449.284 59.5 450.25 59.5H463.75C464.716 59.5 465.5 58.7165 465.5 57.75C465.5 56.7835 464.716 56 463.75 56Z" stroke="black"/>
<path d="M471.5 106H442.5C439.462 106 437 103.538 437 100.5V91.5H457H477V100.5C477 103.538 474.538 106 471.5 106Z" fill="#D9D9D9" stroke="black"/>
<circle cx="457" cy="74.5" r="11" fill="#48CAE4" stroke="black"/>
<path d="M449.5 82.3918C454.823 86.8131 460.863 85.9288 464.25 82.3918C458.5 77 454 78 449.5 82.3918Z" fill="white" stroke="black"/>
<circle cx="457" cy="74.5" r="4" fill="white" stroke="black"/>
<path d="M463.75 56H450.25C449.284 56 448.5 56.7835 448.5 57.75C448.5 58.7165 449.284 59.5 450.25 59.5H463.75C464.716 59.5 465.5 58.7165 465.5 57.75C465.5 56.7835 464.716 56 463.75 56Z" stroke="black"/>
<path d="M442.5 95C442.5 98.5705 442.5 99.4295 442.5 103" stroke="black" stroke-linecap="round"/>
<path d="M446.5 95C446.5 98.5705 446.5 99.4295 446.5 103" stroke="black" stroke-linecap="round"/>
<path d="M450.5 95C450.5 98.5705 450.5 99.4295 450.5 103" stroke="black" stroke-linecap="round"/>
<path d="M454.5 95C454.5 98.5705 454.5 99.4295 454.5 103" stroke="black" stroke-linecap="round"/>
<path d="M458.5 95C458.5 98.5705 458.5 99.4295 458.5 103" stroke="black" stroke-linecap="round"/>
<path d="M462.5 95C462.5 98.5705 462.5 99.4295 462.5 103" stroke="black" stroke-linecap="round"/>
<path d="M466.5 95C466.5 98.5705 466.5 99.4295 466.5 103" stroke="black" stroke-linecap="round"/>
<path d="M470.5 95C470.5 98.5705 470.5 99.4295 470.5 103" stroke="black" stroke-linecap="round"/>
<path fill-rule="evenodd" clip-rule="evenodd" d="M451.5 38C451.5 36.8954 452.395 36 453.5 36H460.5C461.605 36 462.5 36.8954 462.5 38V40.8936V45.7872H451.5V38ZM457 43C458.381 43 459.5 41.8807 459.5 40.5C459.5 39.1193 458.381 38 457 38C455.619 38 454.5 39.1193 454.5 40.5C454.5 41.8807 455.619 43 457 43Z" fill="#D9D9D9" stroke="black"/>
<path d="M451.5 59V46H462.5V59H451.5Z" fill="#48CAE4" stroke="black"/>
<circle cx="457" cy="40.5" r="2" stroke="black"/>
<path d="M483.774 105.862C476.437 101.344 470.591 92.0544 470.501 83.2068C470.5 83.0742 470.552 82.9473 470.647 82.8541C472.577 80.9471 474.939 79.0511 476.867 77.5999C476.954 77.5348 477.058 77.5 477.167 77.5H490.849C490.947 77.5 491.044 77.5293 491.126 77.5843C493.974 79.492 496.361 81.3934 497.853 82.8544C497.948 82.9472 498 83.0742 497.999 83.2068C497.907 92.5437 491.583 102.314 484.239 105.886C484.089 105.959 483.915 105.95 483.774 105.862Z" fill="#48CAE4" stroke="black" stroke-linecap="round"/>
<circle cx="484" cy="90.5" r="7" fill="white" stroke="black"/>
<path d="M481 90.5L482.646 92.1464C482.842 92.3417 483.158 92.3417 483.354 92.1464L487.5 88" stroke="black" stroke-linecap="round"/>
</svg>
